<svg width="22" height="22" viewBox="0 0 22 22" fill="none" xmlns="http://www.w3.org/2000/svg">
<mask id="mask0_502_7991" style="mask-type:alpha" maskUnits="userSpaceOnUse" x="0" y="0" width="22" height="22">
<rect width="22" height="22" fill="#D9D9D9"/>
</mask>
<g mask="url(#mask0_502_7991)">
<path d="M7.38552 15.3714C7.61545 15.3714 7.80797 15.2937 7.96309 15.1381C8.11822 14.9826 8.19578 14.7898 8.19578 14.5599C8.19578 14.33 8.11801 14.1375 7.96247 13.9823C7.80694 13.8272 7.61421 13.7497 7.38428 13.7497C7.15435 13.7497 6.96182 13.8274 6.80669 13.983C6.65157 14.1385 6.57402 14.3312 6.57402 14.5612C6.57402 14.7911 6.65178 14.9836 6.80731 15.1387C6.96285 15.2939 7.15559 15.3714 7.38552 15.3714ZM7.38552 11.8105C7.61545 11.8105 7.80797 11.7328 7.96309 11.5772C8.11822 11.4217 8.19578 11.229 8.19578 10.999C8.19578 10.7691 8.11801 10.5766 7.96247 10.4214C7.80694 10.2663 7.61421 10.1888 7.38428 10.1888C7.15435 10.1888 6.96182 10.2665 6.80669 10.4221C6.65157 10.5776 6.57402 10.7703 6.57402 11.0003C6.57402 11.2302 6.65178 11.4227 6.80731 11.5779C6.96285 11.733 7.15559 11.8105 7.38552 11.8105ZM7.38552 8.24965C7.61545 8.24965 7.80797 8.17188 7.96309 8.01634C8.11822 7.86081 8.19578 7.66808 8.19578 7.43815C8.19578 7.20822 8.11801 7.01569 7.96247 6.86056C7.80694 6.70543 7.61421 6.62786 7.38428 6.62786C7.15435 6.62786 6.96182 6.70563 6.80669 6.86118C6.65157 7.01672 6.57402 7.20946 6.57402 7.43939C6.57402 7.66932 6.65178 7.86184 6.80731 8.01696C6.96285 8.17209 7.15559 8.24965 7.38552 8.24965ZM10.1701 15.248H15.3881V13.8731H10.1701V15.248ZM10.1701 11.6871H15.3881V10.3122H10.1701V11.6871ZM10.1701 8.12625H15.3881V6.75127H10.1701V8.12625ZM4.86409 18.7913C4.40105 18.7913 4.00911 18.6309 3.68828 18.31C3.36745 17.9892 3.20703 17.5973 3.20703 17.1342V4.86507C3.20703 4.40203 3.36745 4.01009 3.68828 3.68926C4.00911 3.36842 4.40105 3.20801 4.86409 3.20801H17.1333C17.5963 3.20801 17.9882 3.36842 18.3091 3.68926C18.6299 4.01009 18.7903 4.40203 18.7903 4.86507V17.1342C18.7903 17.5973 18.6299 17.9892 18.3091 18.31C17.9882 18.6309 17.5963 18.7913 17.1333 18.7913H4.86409ZM4.86409 17.4163H17.1333C17.2038 17.4163 17.2684 17.3869 17.3272 17.3282C17.386 17.2694 17.4153 17.2048 17.4153 17.1342V4.86507C17.4153 4.79455 17.386 4.7299 17.3272 4.67112C17.2684 4.61237 17.2038 4.58299 17.1333 4.58299H4.86409C4.79357 4.58299 4.72892 4.61237 4.67015 4.67112C4.61139 4.7299 4.58201 4.79455 4.58201 4.86507V17.1342C4.58201 17.2048 4.61139 17.2694 4.67015 17.3282C4.72892 17.3869 4.79357 17.4163 4.86409 17.4163Z" fill="#5D6570"/>
</g>
</svg>
