<svg width="32" height="25" viewBox="0 0 32 25" fill="none" xmlns="http://www.w3.org/2000/svg">
<path d="M11.6991 10.0811C12.8772 10.0811 13.8322 9.23857 13.8322 8.19925C13.8322 7.15992 12.8772 6.31738 11.6991 6.31738C10.521 6.31738 9.56592 7.15992 9.56592 8.19925C9.56592 9.23857 10.521 10.0811 11.6991 10.0811Z" fill="white"/>
<path d="M29.2266 15.1255C28.2192 14.2892 26.9453 13.7403 25.5528 13.5835V4.01734C25.5528 2.998 25.0788 2.08321 24.3381 1.40365C23.5678 0.724086 22.5308 0.332031 21.3754 0.332031H4.19159C3.03613 0.332031 1.99918 0.750223 1.22888 1.40365C0.458568 2.08321 0.0141602 2.998 0.0141602 4.01734V16.0665V17.1904V19.6211C0.0141602 20.6404 0.488195 21.5552 1.22888 22.2348C1.99918 22.9144 3.03613 23.3064 4.19159 23.3064H20.8124C21.9087 24.0905 23.2715 24.5871 24.7825 24.5871C26.5305 24.5871 28.1007 23.9598 29.2266 22.9666C30.3524 21.9734 31.0635 20.5882 31.0635 19.0461C31.0635 17.504 30.3524 16.1188 29.2266 15.1255ZM1.5844 4.01734C1.5844 3.39006 1.88067 2.81504 2.35471 2.42299C2.82874 2.0048 3.48054 1.74343 4.19159 1.74343H21.3754C22.0864 1.74343 22.7382 2.0048 23.2123 2.42299C23.6863 2.84118 23.9826 3.41619 23.9826 4.04348V12.1982L19.5977 8.32994C19.3015 8.06857 18.7978 8.04243 18.4719 8.32994L11.865 14.1846L7.39133 10.2118C7.09506 9.95043 6.5914 9.92429 6.2655 10.2118L1.5844 14.3937V4.01734ZM4.16197 21.9734V21.9212C3.45091 21.9212 2.79912 21.6598 2.32508 21.2416C1.88067 20.8234 1.5844 20.2484 1.5844 19.6211V17.1904V16.3801L6.82841 11.7277L11.3021 15.6744C11.5984 15.9358 12.1021 15.9358 12.428 15.6744L19.0348 9.81975L23.3604 13.6619C23.2715 13.688 23.1826 13.7142 23.0937 13.7403C22.9752 13.7664 22.8567 13.7926 22.7086 13.8448C22.5901 13.871 22.4716 13.9232 22.3531 13.9494C22.2642 13.9755 22.2049 14.0017 22.116 14.0539C21.9975 14.1062 21.9087 14.1323 21.8198 14.1846C21.6716 14.263 21.5235 14.3414 21.3754 14.4199C21.2865 14.4721 21.2272 14.4983 21.1383 14.5505C21.0791 14.5767 21.0495 14.6028 20.9902 14.6289C20.7236 14.7858 20.4865 14.9687 20.2792 15.1778C19.1533 16.171 18.4423 17.5563 18.4423 19.0984C18.4423 19.4904 18.5015 19.8563 18.5904 20.2484C18.62 20.3529 18.6497 20.4314 18.6793 20.5359C18.7682 20.7973 18.8571 21.0586 18.9756 21.32V21.3461C19.0941 21.5552 19.2126 21.7905 19.3607 21.9734H4.16197ZM28.0711 21.9734C27.2119 22.7314 26.0565 23.1757 24.7529 23.1757C23.5085 23.1757 22.3531 22.7314 21.5235 22.0257C21.405 21.9212 21.2865 21.7905 21.168 21.6859C21.0791 21.6075 20.9902 21.503 20.9013 21.4246C20.7828 21.2939 20.6939 21.137 20.6051 20.9802C20.5458 20.8757 20.4865 20.7973 20.4273 20.6927C20.368 20.562 20.3088 20.4052 20.2792 20.2484C20.2495 20.1438 20.1903 20.0132 20.1607 19.9086C20.1014 19.6472 20.0718 19.3597 20.0718 19.0722C20.0718 17.9222 20.6051 16.9029 21.4346 16.1449C22.2642 15.3869 23.4493 14.9426 24.7529 14.9426C26.0565 14.9426 27.2119 15.4131 28.0711 16.1449C28.9303 16.9029 29.434 17.9222 29.434 19.0722C29.434 20.1961 28.9007 21.2155 28.0711 21.9734Z" fill="white"/>
<path d="M25.3334 16.2499C25.2741 16.1976 25.1852 16.1453 25.0667 16.093C24.9778 16.0669 24.8889 16.0408 24.8001 16.0408C24.7704 16.0408 24.7704 16.0408 24.7704 16.0408C24.7408 16.0408 24.7408 16.0408 24.7408 16.0408C24.6519 16.0408 24.563 16.0669 24.4742 16.093C24.3853 16.1192 24.2964 16.1715 24.2075 16.2499L22.3706 17.8704C22.0744 18.1317 22.0744 18.5761 22.3706 18.8636C22.6669 19.1249 23.1706 19.1249 23.4965 18.8636L23.9705 18.4454V21.3204C23.9705 21.7125 24.326 22.0261 24.7704 22.0261C25.2148 22.0261 25.5704 21.7125 25.5704 21.3204V18.4454L26.0444 18.8636C26.3407 19.1249 26.8443 19.1249 27.1702 18.8636C27.4665 18.6022 27.4665 18.1579 27.1702 17.8704L25.3334 16.2499Z" fill="white"/>
</svg>
